<?xml version="1.0" standalone="no"?>
<!DOCTYPE svg PUBLIC "-//W3C//DTD SVG 20010904//EN"
 "http://www.w3.org/TR/2001/REC-SVG-20010904/DTD/svg10.dtd">
<svg version="1.0" xmlns="http://www.w3.org/2000/svg"
 width="700.000000pt" height="700.000000pt" viewBox="0 0 700.000000 700.000000"
 preserveAspectRatio="xMidYMid meet">
<metadata>
Created by potrace 1.14, written by Peter Selinger 2001-2017
</metadata>
<g transform="translate(0.000000,700.000000) scale(0.100000,-0.100000)"
fill="#000000" stroke="none">
<path d="M5797 6634 c-1 -1 -44 -5 -96 -8 -51 -3 -103 -8 -115 -11 -11 -2 -39
-7 -61 -10 -219 -29 -515 -150 -741 -302 -88 -59 -220 -157 -234 -172 -3 -3
-30 -27 -61 -53 -228 -192 -474 -495 -606 -748 -33 -63 -84 -172 -88 -190 -1
-3 -7 -18 -14 -35 -27 -63 -76 -249 -87 -328 -12 -95 -13 -111 -15 -207 -1
-116 6 -188 32 -302 20 -86 20 -86 0 -130 -68 -151 -173 -468 -181 -548 -1 -8
-19 39 -41 105 -35 109 -67 196 -89 250 -106 251 -160 365 -253 525 -267 458
-612 807 -997 1007 -662 343 -1399 329 -1964 -37 -142 -92 -186 -154 -172
-240 20 -124 148 -428 280 -660 70 -125 231 -367 266 -400 3 -3 25 -30 50 -60
284 -350 671 -638 1077 -799 154 -61 358 -122 483 -145 117 -21 151 -26 195
-31 28 -4 61 -8 75 -10 139 -23 545 -23 756 0 l41 5 51 -108 c59 -124 84 -191
107 -281 16 -64 16 -92 0 -316 -35 -494 -50 -1380 -31 -1909 8 -224 14 -253
61 -301 72 -71 196 -72 258 -2 49 55 54 85 48 274 -13 404 -5 1334 14 1643 2
36 7 119 10 185 4 66 8 136 10 155 2 19 6 76 9 125 4 50 9 110 11 135 3 25 7
70 9 100 13 157 17 197 21 220 3 14 7 45 9 70 3 25 8 72 11 105 11 101 25 185
51 302 29 131 90 329 104 338 5 3 31 8 57 10 26 3 64 7 83 10 19 3 49 8 65 10
61 8 169 26 236 40 38 8 81 17 96 20 329 60 851 242 1143 398 326 174 538 336
781 596 36 39 144 187 188 259 169 272 262 585 278 936 8 189 1 234 -47 289
-22 25 -50 47 -62 50 -13 2 -61 19 -108 36 -133 50 -355 104 -475 117 -22 2
-45 6 -52 9 -23 8 -368 26 -376 19z m288 -378 c135 -17 250 -39 374 -73 l93
-26 -6 -86 c-4 -47 -9 -95 -11 -106 -3 -11 -7 -36 -9 -55 -3 -19 -12 -64 -20
-100 -137 -587 -602 -1043 -1360 -1335 -117 -45 -375 -128 -433 -139 -10 -2
-54 -13 -98 -24 -80 -20 -232 -52 -270 -57 -11 -1 -33 -5 -50 -8 -48 -11 -115
-17 -115 -12 0 10 113 186 144 226 12 14 32 41 46 59 123 166 306 357 505 526
61 52 119 102 130 112 74 64 328 241 500 347 60 37 115 73 121 80 89 88 65
240 -46 294 -62 31 -112 27 -188 -14 -113 -63 -459 -295 -549 -369 -10 -8 -47
-38 -83 -66 -213 -168 -426 -375 -588 -570 -52 -63 -101 -121 -108 -129 -15
-17 17 124 52 225 126 367 469 775 881 1047 221 146 413 218 683 255 66 9 321
8 405 -2z m-4695 -911 c264 -40 546 -148 753 -288 53 -37 102 -71 109 -77 276
-233 473 -487 664 -856 42 -80 73 -149 70 -152 -5 -5 -56 37 -91 74 -5 6 -68
58 -140 116 -288 230 -632 449 -995 633 -101 52 -122 59 -176 59 -50 1 -68 -4
-101 -26 -71 -47 -102 -145 -69 -221 21 -51 57 -80 173 -137 347 -171 732
-421 1023 -664 108 -90 360 -338 360 -355 0 -11 -390 -9 -475 3 -468 66 -770
172 -1091 381 -180 118 -404 325 -548 505 -168 210 -330 495 -422 740 -24 62
-24 65 -7 79 21 16 195 100 220 106 10 3 44 14 76 25 63 22 179 47 267 56 30
4 57 8 59 10 6 5 294 -4 341 -11z"/>
</g>
</svg>
