<?xml version="1.0" encoding="UTF-8"?>
<!DOCTYPE svg PUBLIC "-//W3C//DTD SVG 1.1//EN" "http://www.w3.org/Graphics/SVG/1.1/DTD/svg11.dtd">
<svg xmlns="http://www.w3.org/2000/svg" version="1.1" width="500px" height="500px" style="shape-rendering:geometricPrecision; text-rendering:geometricPrecision; image-rendering:optimizeQuality; fill-rule:evenodd; clip-rule:evenodd" xmlns:xlink="http://www.w3.org/1999/xlink">
<g><path style="opacity:0.935" fill="#000000" d="M 208.5,196.5 C 213.833,196.5 219.167,196.5 224.5,196.5C 224.333,207.838 224.5,219.172 225,230.5C 234.347,224.013 243.847,223.846 253.5,230C 256.273,232.383 258.439,235.217 260,238.5C 260.5,224.504 260.667,210.504 260.5,196.5C 265.833,196.5 271.167,196.5 276.5,196.5C 276.5,221.833 276.5,247.167 276.5,272.5C 271.167,272.5 265.833,272.5 260.5,272.5C 260.666,268.486 260.499,264.486 260,260.5C 252.535,274.08 241.701,277.58 227.5,271C 225.03,267.53 224.03,268.03 224.5,272.5C 219.167,272.5 213.833,272.5 208.5,272.5C 208.664,269.813 208.497,267.146 208,264.5C 196.879,275.364 184.379,277.197 170.5,270C 162.177,263.517 158.677,255.017 160,244.5C 155.167,253.5 150.333,262.5 145.5,271.5C 141.217,272.492 136.884,272.826 132.5,272.5C 130.091,265.28 127.091,258.28 123.5,251.5C 120.039,258.257 116.705,265.09 113.5,272C 109.5,272.667 105.5,272.667 101.5,272C 93.6272,257.087 85.6272,242.254 77.5,227.5C 83.8072,226.336 90.1405,226.169 96.5,227C 100.128,234.424 103.628,241.924 107,249.5C 110.757,242.319 114.257,234.986 117.5,227.5C 121.5,226.167 125.5,226.167 129.5,227.5C 132.743,234.986 136.243,242.319 140,249.5C 143.372,241.924 146.872,234.424 150.5,227C 156.833,226.333 163.167,226.333 169.5,227C 167.935,228.871 167.269,230.704 167.5,232.5C 178.189,224.165 189.523,223.332 201.5,230C 204.433,232.264 206.6,235.098 208,238.5C 208.5,224.504 208.667,210.504 208.5,196.5 Z M 183.5,236.5 C 187.917,236.042 191.25,237.708 193.5,241.5C 188.198,242.663 182.864,242.829 177.5,242C 178.771,239.223 180.771,237.389 183.5,236.5 Z M 232.5,239.5 C 241.301,240.131 245.134,244.798 244,253.5C 241.081,259.025 236.581,260.858 230.5,259C 224.794,255.544 223.294,250.711 226,244.5C 227.805,242.174 229.972,240.508 232.5,239.5 Z M 177.5,252.5 C 187.833,252.5 198.167,252.5 208.5,252.5C 208.813,255.247 208.48,257.914 207.5,260.5C 204.254,258.961 201.088,257.294 198,255.5C 192.134,261.226 185.801,261.893 179,257.5C 177.991,255.975 177.491,254.308 177.5,252.5 Z"/></g>
<g><path style="opacity:0.825" fill="#000000" d="M -0.5,216.5 C -0.5,215.833 -0.5,215.167 -0.5,214.5C 10.8557,207.251 21.5224,208.251 31.5,217.5C 35.3597,221.882 38.193,226.882 40,232.5C 39.3321,220.824 43.4988,211.324 52.5,204C 60.0082,199.373 68.0082,198.373 76.5,201C 78.1802,201.347 79.1802,202.347 79.5,204C 78.5887,215.825 72.5887,223.825 61.5,228C 56.3408,229.998 51.0075,231.165 45.5,231.5C 43.111,245.38 42.111,259.38 42.5,273.5C 40.549,273.773 39.049,273.107 38,271.5C 37.3526,263.819 37.5192,256.152 38.5,248.5C 38.5223,246.035 38.0223,243.702 37,241.5C 18.6747,241.642 6.17467,233.309 -0.5,216.5 Z M 48.5,217.5 C 53.2487,207.291 61.2487,203.124 72.5,205C 73.8297,208.368 73.3297,211.535 71,214.5C 65.1736,221.663 57.6736,225.496 48.5,226C 52.663,220.583 57.663,216.083 63.5,212.5C 64.4519,210.955 64.7852,209.288 64.5,207.5C 58.4144,209.577 53.0811,212.91 48.5,217.5 Z M 31.5,226.5 C 27.8886,224.356 24.2219,222.19 20.5,220C 16.3385,218.826 15.0052,220.159 16.5,224C 22.5288,226.679 27.8621,230.346 32.5,235C 19.6377,235.23 10.6377,229.396 5.5,217.5C 16.6896,212.453 25.3563,215.453 31.5,226.5 Z"/></g>
<g><path style="opacity:0.923" fill="#000000" d="M 352.5,225.5 C 360.465,224.481 367.132,226.814 372.5,232.5C 380.113,225.152 388.78,223.652 398.5,228C 401.762,230.592 404.262,233.759 406,237.5C 414.238,226.391 425.072,222.891 438.5,227C 443.888,229.055 448.054,232.555 451,237.5C 459.979,225.711 471.479,222.544 485.5,228C 494.661,233.49 498.661,241.657 497.5,252.5C 486.48,252.168 475.48,252.501 464.5,253.5C 467.519,260.006 472.519,262.172 479.5,260C 481.624,258.878 483.457,257.378 485,255.5C 488.667,257.5 492.333,259.5 496,261.5C 496.065,264.198 494.898,266.364 492.5,268C 482.88,274.796 472.547,276.129 461.5,272C 457.407,270.075 454.074,267.242 451.5,263.5C 444.297,272.404 434.963,275.904 423.5,274C 416.078,272.542 410.244,268.708 406,262.5C 405.502,265.817 405.335,269.15 405.5,272.5C 400.167,272.5 394.833,272.5 389.5,272.5C 389.895,262.434 389.395,252.434 388,242.5C 385.039,239.384 381.539,238.717 377.5,240.5C 376.416,241.665 375.583,242.998 375,244.5C 374.5,253.827 374.334,263.161 374.5,272.5C 369.167,272.5 363.833,272.5 358.5,272.5C 358.666,263.161 358.5,253.827 358,244.5C 354.468,238.71 350.135,238.043 345,242.5C 344.5,252.494 344.334,262.494 344.5,272.5C 338.833,272.5 333.167,272.5 327.5,272.5C 327.666,267.156 327.499,261.823 327,256.5C 326.523,265.309 322.023,270.809 313.5,273C 303.115,275.612 293.115,274.612 283.5,270C 280.769,267.374 278.936,264.207 278,260.5C 277.5,249.172 277.333,237.838 277.5,226.5C 282.833,226.5 288.167,226.5 293.5,226.5C 293.334,235.173 293.5,243.84 294,252.5C 295.58,260.371 300.08,262.538 307.5,259C 308.893,257.829 309.727,256.329 310,254.5C 310.5,245.173 310.666,235.839 310.5,226.5C 321.833,226.5 333.167,226.5 344.5,226.5C 344.343,227.873 344.51,229.207 345,230.5C 347.17,228.177 349.67,226.51 352.5,225.5 Z M 425.5,236.5 C 430.547,235.69 434.214,237.523 436.5,242C 431.167,242.667 425.833,242.667 420.5,242C 421.692,239.645 423.359,237.812 425.5,236.5 Z M 470.5,236.5 C 474.954,236.06 478.287,237.727 480.5,241.5C 475.5,242.833 470.5,242.833 465.5,241.5C 466.882,239.451 468.548,237.785 470.5,236.5 Z M 420.5,252.5 C 429.5,252.5 438.5,252.5 447.5,252.5C 448.141,255.221 448.641,257.888 449,260.5C 446,258.833 443,257.167 440,255.5C 433.953,261.728 427.62,262.062 421,256.5C 420.51,255.207 420.343,253.873 420.5,252.5 Z"/></g>
</svg>
