<svg xmlns="http://www.w3.org/2000/svg" xmlns:xlink="http://www.w3.org/1999/xlink" width="556" zoomAndPan="magnify" viewBox="0 0 416.88 133.500001" height="178" preserveAspectRatio="xMidYMid meet" version="1.0"><defs><g/><clipPath id="357e4139f2"><path d="M 0.71875 27 L 62.734375 27 L 62.734375 85.144531 L 0.71875 85.144531 Z M 0.71875 27 " clip-rule="nonzero"/></clipPath></defs><g clip-path="url(#357e4139f2)"><path fill="#000000" d="M 61.019531 29.164062 C 60.683594 29.011719 52.644531 25.550781 45.265625 29.195312 C 39.105469 32.238281 31.25 40.683594 33.78125 49.195312 C 32.96875 50.917969 32.363281 52.722656 31.941406 54.585938 C 31.242188 52.007812 27.816406 41.289062 18.804688 37.285156 C 8.539062 32.734375 1.648438 38.546875 1.367188 38.796875 C 0.902344 39.195312 0.707031 39.820312 0.859375 40.414062 C 0.914062 40.609375 5.839844 58.988281 25.523438 58.988281 C 26.703125 58.988281 27.933594 58.921875 29.230469 58.78125 C 29.273438 58.78125 29.308594 58.761719 29.351562 58.761719 C 30.09375 60.042969 30.65625 61.414062 30.949219 62.839844 C 30.050781 74.109375 30.582031 83.394531 30.582031 83.503906 C 30.636719 84.367188 31.347656 85.023438 32.203125 85.023438 C 32.234375 85.023438 32.265625 85.023438 32.300781 85.023438 C 33.195312 84.972656 33.875 84.207031 33.824219 83.308594 C 33.824219 83.191406 33.121094 70.90625 34.730469 57.554688 C 34.957031 55.6875 35.398438 53.90625 36.058594 52.179688 C 36.101562 52.179688 36.144531 52.203125 36.199219 52.203125 C 36.242188 52.203125 36.285156 52.203125 36.328125 52.203125 C 36.589844 52.179688 62.683594 49.992188 62.011719 30.566406 C 61.988281 29.953125 61.613281 29.390625 61.050781 29.140625 Z M 4.328125 40.660156 C 6.175781 39.519531 10.980469 37.351562 17.496094 40.242188 C 22.566406 42.484375 25.621094 47.488281 27.285156 51.242188 C 22.066406 46.390625 15.8125 43.542969 15.390625 43.359375 C 14.582031 42.992188 13.617188 43.359375 13.25 44.179688 C 12.882812 44.996094 13.25 45.945312 14.074219 46.3125 C 14.179688 46.367188 22.109375 49.96875 27.125 55.71875 C 11.121094 56.582031 5.625 44.394531 4.328125 40.660156 Z M 37.667969 48.816406 C 40.242188 44.414062 44.410156 40.511719 50.265625 37.027344 C 51.035156 36.574219 51.28125 35.570312 50.828125 34.804688 C 50.375 34.039062 49.371094 33.792969 48.601562 34.246094 C 43.4375 37.316406 39.460938 40.726562 36.632812 44.5 C 37.421875 38.914062 43.050781 33.898438 46.710938 32.085938 C 48.710938 31.105469 50.808594 30.769531 52.71875 30.769531 C 55.292969 30.769531 57.539062 31.363281 58.75 31.761719 C 58.382812 44.847656 42.800781 48.09375 37.660156 48.804688 Z M 37.667969 48.816406 " fill-opacity="1" fill-rule="nonzero"/></g><g fill="#000000" fill-opacity="1"><g transform="translate(62.998766, 84.24654)"><g><path d="M 25.78125 0 L 17.53125 0 L -1.375 -35.265625 L 12.65625 -35.265625 L 21.25 -16.21875 L 29.703125 -35.265625 L 38.09375 -35.265625 L 46.546875 -16.21875 L 55.140625 -35.265625 L 69.15625 -35.265625 L 50.25 0 L 42 0 L 33.890625 -18.21875 Z M 25.78125 0 "/></g></g></g><g fill="#000000" fill-opacity="1"><g transform="translate(124.316738, 84.24654)"><g><path d="M 39.8125 -15.953125 L 14.234375 -15.953125 C 14.234375 -13.472656 15.035156 -11.632812 16.640625 -10.4375 C 18.242188 -9.25 19.984375 -8.65625 21.859375 -8.65625 C 23.828125 -8.65625 25.382812 -8.921875 26.53125 -9.453125 C 27.675781 -9.984375 28.984375 -11.023438 30.453125 -12.578125 L 39.25 -8.1875 C 35.582031 -2.039062 29.488281 1.03125 20.96875 1.03125 C 15.65625 1.03125 11.09375 -0.789062 7.28125 -4.4375 C 3.476562 -8.082031 1.578125 -12.46875 1.578125 -17.59375 C 1.578125 -22.726562 3.476562 -27.128906 7.28125 -30.796875 C 11.09375 -34.460938 15.65625 -36.296875 20.96875 -36.296875 C 26.5625 -36.296875 31.109375 -34.679688 34.609375 -31.453125 C 38.117188 -28.222656 39.875 -23.601562 39.875 -17.59375 C 39.875 -16.769531 39.851562 -16.222656 39.8125 -15.953125 Z M 14.578125 -22.6875 L 27.984375 -22.6875 C 27.703125 -24.519531 26.976562 -25.925781 25.8125 -26.90625 C 24.644531 -27.894531 23.144531 -28.390625 21.3125 -28.390625 C 19.289062 -28.390625 17.6875 -27.863281 16.5 -26.8125 C 15.3125 -25.757812 14.671875 -24.382812 14.578125 -22.6875 Z M 14.578125 -22.6875 "/></g></g></g><g fill="#000000" fill-opacity="1"><g transform="translate(159.306314, 84.24654)"><g><path d="M 40.421875 -30.859375 C 43.722656 -27.242188 45.375 -22.820312 45.375 -17.59375 C 45.375 -12.375 43.722656 -7.960938 40.421875 -4.359375 C 37.117188 -0.765625 32.925781 1.03125 27.84375 1.03125 C 23.164062 1.03125 19.316406 -0.640625 16.296875 -3.984375 L 16.15625 -3.984375 L 16.15625 0 L 4.125 0 L 4.125 -59.125 L 16.296875 -59.125 L 16.296875 -31.90625 C 19.316406 -34.832031 23.164062 -36.296875 27.84375 -36.296875 C 32.925781 -36.296875 37.117188 -34.484375 40.421875 -30.859375 Z M 30.171875 -11.640625 C 31.691406 -13.179688 32.453125 -15.164062 32.453125 -17.59375 C 32.453125 -20.03125 31.660156 -22.023438 30.078125 -23.578125 C 28.492188 -25.140625 26.535156 -25.921875 24.203125 -25.921875 C 21.910156 -25.921875 19.972656 -25.140625 18.390625 -23.578125 C 16.804688 -22.023438 16.015625 -20.03125 16.015625 -17.59375 C 16.015625 -15.21875 16.78125 -13.25 18.3125 -11.6875 C 19.851562 -10.125 21.816406 -9.34375 24.203125 -9.34375 C 26.671875 -9.34375 28.660156 -10.109375 30.171875 -11.640625 Z M 30.171875 -11.640625 "/></g></g></g><g fill="#000000" fill-opacity="1"><g transform="translate(199.795294, 84.24654)"><g><path d="M 4.125 0 L 4.125 -59.125 L 16.296875 -59.125 L 16.296875 0 Z M 4.125 0 "/></g></g></g><g fill="#000000" fill-opacity="1"><g transform="translate(213.74966, 84.24654)"><g><path d="M 15.609375 -35.265625 L 15.609375 -18.5 C 15.609375 -15.007812 16.132812 -12.53125 17.1875 -11.0625 C 18.238281 -9.601562 20.023438 -8.875 22.546875 -8.875 C 25.066406 -8.875 26.851562 -9.601562 27.90625 -11.0625 C 28.96875 -12.53125 29.5 -15.007812 29.5 -18.5 L 29.5 -35.265625 L 41.65625 -35.265625 L 41.65625 -15.53125 C 41.65625 -9.664062 40.128906 -5.4375 37.078125 -2.84375 C 34.035156 -0.257812 29.191406 1.03125 22.546875 1.03125 C 15.898438 1.03125 11.050781 -0.257812 8 -2.84375 C 4.957031 -5.4375 3.4375 -9.664062 3.4375 -15.53125 L 3.4375 -35.265625 Z M 15.609375 -35.265625 "/></g></g></g><g fill="#000000" fill-opacity="1"><g transform="translate(252.382596, 84.24654)"><g><path d="M 4.125 0 L 4.125 -35.265625 L 16.296875 -35.265625 L 16.296875 -31.5625 L 16.4375 -31.5625 C 19.59375 -34.71875 22.957031 -36.296875 26.53125 -36.296875 C 29.101562 -36.296875 31.507812 -35.769531 33.75 -34.71875 C 36 -33.664062 37.695312 -32.039062 38.84375 -29.84375 C 42.414062 -34.144531 46.3125 -36.296875 50.53125 -36.296875 C 54.289062 -36.296875 57.519531 -35.238281 60.21875 -33.125 C 62.925781 -31.019531 64.28125 -27.722656 64.28125 -23.234375 L 64.28125 0 L 52.109375 0 L 52.109375 -19.9375 C 52.109375 -21.8125 51.59375 -23.378906 50.5625 -24.640625 C 49.53125 -25.898438 47.984375 -26.53125 45.921875 -26.53125 C 44.140625 -26.53125 42.773438 -25.992188 41.828125 -24.921875 C 40.890625 -23.847656 40.375 -22.550781 40.28125 -21.03125 L 40.28125 0 L 28.125 0 L 28.125 -19.9375 C 28.125 -21.8125 27.609375 -23.378906 26.578125 -24.640625 C 25.546875 -25.898438 24 -26.53125 21.9375 -26.53125 C 20.050781 -26.53125 18.640625 -25.945312 17.703125 -24.78125 C 16.765625 -23.613281 16.296875 -22.226562 16.296875 -20.625 L 16.296875 0 Z M 4.125 0 "/></g></g></g><g fill="#000000" fill-opacity="1"><g transform="translate(313.631818, 84.24654)"><g><path d="M 39.8125 -15.953125 L 14.234375 -15.953125 C 14.234375 -13.472656 15.035156 -11.632812 16.640625 -10.4375 C 18.242188 -9.25 19.984375 -8.65625 21.859375 -8.65625 C 23.828125 -8.65625 25.382812 -8.921875 26.53125 -9.453125 C 27.675781 -9.984375 28.984375 -11.023438 30.453125 -12.578125 L 39.25 -8.1875 C 35.582031 -2.039062 29.488281 1.03125 20.96875 1.03125 C 15.65625 1.03125 11.09375 -0.789062 7.28125 -4.4375 C 3.476562 -8.082031 1.578125 -12.46875 1.578125 -17.59375 C 1.578125 -22.726562 3.476562 -27.128906 7.28125 -30.796875 C 11.09375 -34.460938 15.65625 -36.296875 20.96875 -36.296875 C 26.5625 -36.296875 31.109375 -34.679688 34.609375 -31.453125 C 38.117188 -28.222656 39.875 -23.601562 39.875 -17.59375 C 39.875 -16.769531 39.851562 -16.222656 39.8125 -15.953125 Z M 14.578125 -22.6875 L 27.984375 -22.6875 C 27.703125 -24.519531 26.976562 -25.925781 25.8125 -26.90625 C 24.644531 -27.894531 23.144531 -28.390625 21.3125 -28.390625 C 19.289062 -28.390625 17.6875 -27.863281 16.5 -26.8125 C 15.3125 -25.757812 14.671875 -24.382812 14.578125 -22.6875 Z M 14.578125 -22.6875 "/></g></g></g><g fill="#000000" fill-opacity="1"><g transform="translate(348.621406, 84.24654)"><g><path d="M 39.8125 -15.953125 L 14.234375 -15.953125 C 14.234375 -13.472656 15.035156 -11.632812 16.640625 -10.4375 C 18.242188 -9.25 19.984375 -8.65625 21.859375 -8.65625 C 23.828125 -8.65625 25.382812 -8.921875 26.53125 -9.453125 C 27.675781 -9.984375 28.984375 -11.023438 30.453125 -12.578125 L 39.25 -8.1875 C 35.582031 -2.039062 29.488281 1.03125 20.96875 1.03125 C 15.65625 1.03125 11.09375 -0.789062 7.28125 -4.4375 C 3.476562 -8.082031 1.578125 -12.46875 1.578125 -17.59375 C 1.578125 -22.726562 3.476562 -27.128906 7.28125 -30.796875 C 11.09375 -34.460938 15.65625 -36.296875 20.96875 -36.296875 C 26.5625 -36.296875 31.109375 -34.679688 34.609375 -31.453125 C 38.117188 -28.222656 39.875 -23.601562 39.875 -17.59375 C 39.875 -16.769531 39.851562 -16.222656 39.8125 -15.953125 Z M 14.578125 -22.6875 L 27.984375 -22.6875 C 27.703125 -24.519531 26.976562 -25.925781 25.8125 -26.90625 C 24.644531 -27.894531 23.144531 -28.390625 21.3125 -28.390625 C 19.289062 -28.390625 17.6875 -27.863281 16.5 -26.8125 C 15.3125 -25.757812 14.671875 -24.382812 14.578125 -22.6875 Z M 14.578125 -22.6875 "/></g></g></g></svg>