<svg xmlns="http://www.w3.org/2000/svg" xmlns:xlink="http://www.w3.org/1999/xlink" width="500" zoomAndPan="magnify" viewBox="0 0 375 374.999991" height="500" preserveAspectRatio="xMidYMid meet" version="1.0"><defs><clipPath id="117acd98d3"><path d="M 0.0273438 19 L 371 19 L 371 368.753906 L 0.0273438 368.753906 Z M 0.0273438 19 " clip-rule="nonzero"/></clipPath></defs><g clip-path="url(#117acd98d3)"><path fill="#000000" d="M 364.640625 29.5 C 362.617188 28.585938 314.007812 7.601562 269.386719 29.695312 C 232.148438 48.132812 184.652344 99.316406 199.941406 150.890625 C 195.042969 161.351562 191.382812 172.269531 188.835938 183.578125 C 184.589844 167.953125 163.878906 102.976562 109.390625 78.722656 C 47.328125 51.136719 5.648438 86.371094 3.949219 87.875 C 1.140625 90.292969 -0.0390625 94.085938 0.878906 97.679688 C 1.203125 98.859375 30.996094 210.246094 150.027344 210.246094 C 157.148438 210.246094 164.597656 209.855469 172.4375 209.003906 C 172.699219 209.003906 172.894531 208.875 173.15625 208.875 C 177.664062 216.652344 181.058594 224.957031 182.824219 233.585938 C 177.402344 301.894531 180.601562 358.179688 180.601562 358.832031 C 180.929688 364.0625 185.242188 368.050781 190.402344 368.050781 C 190.597656 368.050781 190.792969 368.050781 190.992188 368.050781 C 196.414062 367.722656 200.527344 363.082031 200.203125 357.65625 C 200.203125 356.9375 195.957031 282.480469 205.691406 201.554688 C 207.0625 190.246094 209.742188 179.457031 213.726562 169 C 213.988281 169 214.25 169.128906 214.574219 169.128906 C 214.835938 169.128906 215.097656 169.128906 215.359375 169.128906 C 216.925781 169 374.703125 155.730469 370.652344 38 C 370.519531 34.273438 368.234375 30.875 364.835938 29.371094 Z M 21.847656 99.183594 C 33.019531 92.253906 62.09375 79.117188 101.488281 96.636719 C 132.128906 110.230469 150.617188 140.5625 160.675781 163.3125 C 129.121094 133.894531 91.296875 116.636719 88.746094 115.527344 C 83.847656 113.304688 78.035156 115.527344 75.8125 120.496094 C 73.589844 125.464844 75.8125 131.214844 80.777344 133.4375 C 81.429688 133.765625 129.382812 155.597656 159.695312 190.441406 C 62.941406 195.667969 29.6875 121.800781 21.847656 99.183594 Z M 223.460938 148.605469 C 239.007812 121.933594 264.226562 98.269531 299.636719 77.15625 C 304.273438 74.410156 305.777344 68.332031 303.035156 63.6875 C 300.289062 59.046875 294.214844 57.542969 289.574219 60.289062 C 258.347656 78.921875 234.304688 99.578125 217.1875 122.457031 C 221.957031 88.59375 255.996094 58.199219 278.140625 47.214844 C 290.226562 41.265625 302.902344 39.242188 314.464844 39.242188 C 330.015625 39.242188 343.605469 42.835938 350.921875 45.253906 C 348.699219 124.546875 254.492188 144.222656 223.394531 148.539062 Z M 223.460938 148.605469 " fill-opacity="1" fill-rule="nonzero"/></g></svg>