<svg xmlns="http://www.w3.org/2000/svg" xmlns:xlink="http://www.w3.org/1999/xlink" width="500" zoomAndPan="magnify" viewBox="0 0 375 374.999991" height="500" preserveAspectRatio="xMidYMid meet" version="1.0"><defs><g/></defs><g fill="#000000" fill-opacity="1"><g transform="translate(21.806647, 206.377343)"><g><path d="M 26.125 0 L 17.765625 0 L -1.390625 -35.734375 L 12.8125 -35.734375 L 21.53125 -16.4375 L 30.09375 -35.734375 L 38.59375 -35.734375 L 47.171875 -16.4375 L 55.875 -35.734375 L 70.09375 -35.734375 L 50.9375 0 L 42.5625 0 L 34.34375 -18.46875 Z M 26.125 0 "/></g></g></g><g fill="#000000" fill-opacity="1"><g transform="translate(83.939751, 206.377343)"><g><path d="M 40.34375 -16.15625 L 14.421875 -16.15625 C 14.421875 -13.65625 15.234375 -11.800781 16.859375 -10.59375 C 18.484375 -9.382812 20.25 -8.78125 22.15625 -8.78125 C 24.15625 -8.78125 25.734375 -9.046875 26.890625 -9.578125 C 28.054688 -10.109375 29.378906 -11.164062 30.859375 -12.75 L 39.78125 -8.296875 C 36.0625 -2.066406 29.882812 1.046875 21.25 1.046875 C 15.863281 1.046875 11.242188 -0.796875 7.390625 -4.484375 C 3.535156 -8.179688 1.609375 -12.628906 1.609375 -17.828125 C 1.609375 -23.035156 3.535156 -27.492188 7.390625 -31.203125 C 11.242188 -34.921875 15.863281 -36.78125 21.25 -36.78125 C 26.914062 -36.78125 31.523438 -35.144531 35.078125 -31.875 C 38.628906 -28.601562 40.40625 -23.925781 40.40625 -17.84375 C 40.40625 -17 40.382812 -16.4375 40.34375 -16.15625 Z M 14.765625 -22.984375 L 28.359375 -22.984375 C 28.078125 -24.847656 27.34375 -26.28125 26.15625 -27.28125 C 24.976562 -28.28125 23.457031 -28.78125 21.59375 -28.78125 C 19.550781 -28.78125 17.925781 -28.242188 16.71875 -27.171875 C 15.507812 -26.097656 14.859375 -24.703125 14.765625 -22.984375 Z M 14.765625 -22.984375 "/></g></g></g><g fill="#000000" fill-opacity="1"><g transform="translate(119.393807, 206.377343)"><g><path d="M 40.96875 -31.28125 C 44.3125 -27.613281 45.984375 -23.128906 45.984375 -17.828125 C 45.984375 -12.535156 44.3125 -8.066406 40.96875 -4.421875 C 37.625 -0.773438 33.375 1.046875 28.21875 1.046875 C 23.476562 1.046875 19.578125 -0.648438 16.515625 -4.046875 L 16.375 -4.046875 L 16.375 0 L 4.1875 0 L 4.1875 -59.921875 L 16.515625 -59.921875 L 16.515625 -32.328125 C 19.578125 -35.296875 23.476562 -36.78125 28.21875 -36.78125 C 33.375 -36.78125 37.625 -34.945312 40.96875 -31.28125 Z M 30.578125 -11.796875 C 32.117188 -13.359375 32.890625 -15.367188 32.890625 -17.828125 C 32.890625 -20.296875 32.085938 -22.316406 30.484375 -23.890625 C 28.878906 -25.472656 26.894531 -26.265625 24.53125 -26.265625 C 22.207031 -26.265625 20.242188 -25.472656 18.640625 -23.890625 C 17.035156 -22.316406 16.234375 -20.300781 16.234375 -17.84375 C 16.234375 -15.425781 17.007812 -13.425781 18.5625 -11.84375 C 20.125 -10.257812 22.113281 -9.46875 24.53125 -9.46875 C 27.03125 -9.46875 29.046875 -10.242188 30.578125 -11.796875 Z M 30.578125 -11.796875 "/></g></g></g><g fill="#000000" fill-opacity="1"><g transform="translate(160.420522, 206.377343)"><g><path d="M 4.1875 0 L 4.1875 -59.921875 L 16.515625 -59.921875 L 16.515625 0 Z M 4.1875 0 "/></g></g></g><g fill="#000000" fill-opacity="1"><g transform="translate(174.559193, 206.377343)"><g><path d="M 15.8125 -35.734375 L 15.8125 -18.734375 C 15.8125 -15.210938 16.34375 -12.707031 17.40625 -11.21875 C 18.476562 -9.726562 20.289062 -8.984375 22.84375 -8.984375 C 25.40625 -8.984375 27.21875 -9.726562 28.28125 -11.21875 C 29.351562 -12.707031 29.890625 -15.210938 29.890625 -18.734375 L 29.890625 -35.734375 L 42.21875 -35.734375 L 42.21875 -15.75 C 42.21875 -9.800781 40.671875 -5.515625 37.578125 -2.890625 C 34.492188 -0.265625 29.582031 1.046875 22.84375 1.046875 C 16.113281 1.046875 11.203125 -0.265625 8.109375 -2.890625 C 5.023438 -5.515625 3.484375 -9.800781 3.484375 -15.75 L 3.484375 -35.734375 Z M 15.8125 -35.734375 "/></g></g></g><g fill="#000000" fill-opacity="1"><g transform="translate(213.705127, 206.377343)"><g><path d="M 4.1875 0 L 4.1875 -35.734375 L 16.515625 -35.734375 L 16.515625 -31.984375 L 16.65625 -31.984375 C 19.851562 -35.179688 23.265625 -36.78125 26.890625 -36.78125 C 29.492188 -36.78125 31.929688 -36.242188 34.203125 -35.171875 C 36.484375 -34.109375 38.203125 -32.460938 39.359375 -30.234375 C 42.984375 -34.597656 46.929688 -36.78125 51.203125 -36.78125 C 55.015625 -36.78125 58.289062 -35.710938 61.03125 -33.578125 C 63.769531 -31.441406 65.140625 -28.097656 65.140625 -23.546875 L 65.140625 0 L 52.8125 0 L 52.8125 -20.203125 C 52.8125 -22.109375 52.285156 -23.695312 51.234375 -24.96875 C 50.191406 -26.25 48.628906 -26.890625 46.546875 -26.890625 C 44.734375 -26.890625 43.347656 -26.34375 42.390625 -25.25 C 41.441406 -24.164062 40.921875 -22.851562 40.828125 -21.3125 L 40.828125 0 L 28.5 0 L 28.5 -20.203125 C 28.5 -22.109375 27.972656 -23.695312 26.921875 -24.96875 C 25.878906 -26.25 24.3125 -26.890625 22.21875 -26.890625 C 20.320312 -26.890625 18.894531 -26.296875 17.9375 -25.109375 C 16.988281 -23.929688 16.515625 -22.53125 16.515625 -20.90625 L 16.515625 0 Z M 4.1875 0 "/></g></g></g><g fill="#000000" fill-opacity="1"><g transform="translate(275.768578, 206.377343)"><g><path d="M 40.34375 -16.15625 L 14.421875 -16.15625 C 14.421875 -13.65625 15.234375 -11.800781 16.859375 -10.59375 C 18.484375 -9.382812 20.25 -8.78125 22.15625 -8.78125 C 24.15625 -8.78125 25.734375 -9.046875 26.890625 -9.578125 C 28.054688 -10.109375 29.378906 -11.164062 30.859375 -12.75 L 39.78125 -8.296875 C 36.0625 -2.066406 29.882812 1.046875 21.25 1.046875 C 15.863281 1.046875 11.242188 -0.796875 7.390625 -4.484375 C 3.535156 -8.179688 1.609375 -12.628906 1.609375 -17.828125 C 1.609375 -23.035156 3.535156 -27.492188 7.390625 -31.203125 C 11.242188 -34.921875 15.863281 -36.78125 21.25 -36.78125 C 26.914062 -36.78125 31.523438 -35.144531 35.078125 -31.875 C 38.628906 -28.601562 40.40625 -23.925781 40.40625 -17.84375 C 40.40625 -17 40.382812 -16.4375 40.34375 -16.15625 Z M 14.765625 -22.984375 L 28.359375 -22.984375 C 28.078125 -24.847656 27.34375 -26.28125 26.15625 -27.28125 C 24.976562 -28.28125 23.457031 -28.78125 21.59375 -28.78125 C 19.550781 -28.78125 17.925781 -28.242188 16.71875 -27.171875 C 15.507812 -26.097656 14.859375 -24.703125 14.765625 -22.984375 Z M 14.765625 -22.984375 "/></g></g></g><g fill="#000000" fill-opacity="1"><g transform="translate(311.222642, 206.377343)"><g><path d="M 40.34375 -16.15625 L 14.421875 -16.15625 C 14.421875 -13.65625 15.234375 -11.800781 16.859375 -10.59375 C 18.484375 -9.382812 20.25 -8.78125 22.15625 -8.78125 C 24.15625 -8.78125 25.734375 -9.046875 26.890625 -9.578125 C 28.054688 -10.109375 29.378906 -11.164062 30.859375 -12.75 L 39.78125 -8.296875 C 36.0625 -2.066406 29.882812 1.046875 21.25 1.046875 C 15.863281 1.046875 11.242188 -0.796875 7.390625 -4.484375 C 3.535156 -8.179688 1.609375 -12.628906 1.609375 -17.828125 C 1.609375 -23.035156 3.535156 -27.492188 7.390625 -31.203125 C 11.242188 -34.921875 15.863281 -36.78125 21.25 -36.78125 C 26.914062 -36.78125 31.523438 -35.144531 35.078125 -31.875 C 38.628906 -28.601562 40.40625 -23.925781 40.40625 -17.84375 C 40.40625 -17 40.382812 -16.4375 40.34375 -16.15625 Z M 14.765625 -22.984375 L 28.359375 -22.984375 C 28.078125 -24.847656 27.34375 -26.28125 26.15625 -27.28125 C 24.976562 -28.28125 23.457031 -28.78125 21.59375 -28.78125 C 19.550781 -28.78125 17.925781 -28.242188 16.71875 -27.171875 C 15.507812 -26.097656 14.859375 -24.703125 14.765625 -22.984375 Z M 14.765625 -22.984375 "/></g></g></g></svg>